<?xml version="1.0" encoding="UTF-8"?>
<svg id="Camada_2" data-name="Camada 2" xmlns="http://www.w3.org/2000/svg" viewBox="0 0 200.47 220.79">
  <g id="Camada_1-2" data-name="Camada 1">
    <g>
      <path d="M15.11,29.78c41.93,5.53,84.36,7.33,126.61,5.38,8.76-.41,18.91-.4,24.5,6.35,4.21,5.09,4.29,12.33,4.16,18.94-.56,27.94-1.13,55.88-1.69,83.82-.07,3.55-.2,7.31-2.1,10.31-1.86,2.94-5.12,4.66-8.32,6.01-24.8,10.47-55.51,5.02-75.19-13.33-1.86,5.34,1.16,11.88,6.42,13.93-11.68-3.85-24.06-5.57-36.35-5.07,7.46,5.94,16.5,9.87,25.93,11.28l-32.54-2.15c8.24,6.79,18.5,11.09,29.11,12.22-7.93-2.35-16.84-1.12-23.83,3.29l25.11,5.56-14.25,3.38c-.14,2.07,2.56,2.94,4.63,3.12,14.77,1.3,29.54,2.61,44.31,3.91,7.22.64,14.44,1.27,21.66,1.91,4.98.45,42.14,7.55,32.67,17.56-2.16,2.28-5.23,3.46-8.36,3.49l-97.8,1.05c-14.29.15-30.04-.22-40.66-9.77-6.32-5.68-9.84-13.94-11.33-22.31s-1.1-16.93-.72-25.42c.97-21.29,1.94-42.57,2.91-63.86,14.62,5.1,29.78,8.67,45.15,10.62,4.55.58,9.11,1.01,13.68,1.36,23.32,1.77,46.81,1.2,70.01-1.68-4.13-3.57-9.46-5.74-14.91-6.08,9.17.86,18.56-.95,26.76-5.13-7.87-2.91-16.36-4.11-24.72-3.52,10.61-.19,21.16-3.3,30.18-8.9-10.52-1.6-21.26-1.73-31.82-.37l26.76-8.99c-12.29-2.22-25.04-1.89-37.2.95,2.93-1.28,5.97-2.86,7.51-5.65s.71-7.08-2.33-8.04c-6.77,8.64-17.44,13.65-28.31,15.21s-21.96-.02-32.62-2.67c-17.17-4.27-33.73-11.36-48.09-21.7-3.96-2.85-8.32-6.64-9.78-11.49-1.27-4.22,2.13-8.72,9.42-14.28h0c1.81.25,3.62.5,5.43.74Z"/>
      <path d="M197.88,6.33c.14.17.28.34.41.52,2.16,2.99,2.21,6.96,2.17,10.65-.39,35.37-3.87,110.41-6.28,128.5,0,0-6.6.54-8.53,0,1.02-4.9,3.35-90.39,3.35-96.02,0-20.94.45-25.5-11.23-31.98-17.52-9.72-90.49-6.24-129.57-6.4-3.99-.19-23.78-.37-28.87,0-6.94.51-3.89-6.33-1.61-8.8C20.59-.28,27.9-.02,31.68.03c50.62.64,101.24,1.29,151.87,1.93,5.16.07,11.08.5,14.34,4.38Z"/>
    </g>
  </g>
</svg>